<svg width="486" height="143" viewBox="0 0 486 143" fill="none" xmlns="http://www.w3.org/2000/svg">
<path style="mix-blend-mode:soft-light" d="M485.93 142.1H0C1.51709 128.362 4.85295 114.888 9.92 102.03C21.64 72.1095 45.08 43.5995 76.92 39.0295C90.64 37.0295 104.12 39.7295 117.17 44.5695C126.294 47.9321 136.234 48.3917 145.628 45.8854C155.023 43.3792 163.414 38.0296 169.65 30.5695C182.622 14.9767 200.754 4.54943 220.755 1.17913C240.757 -2.19116 261.304 1.71871 278.67 12.1996C285.276 16.2918 291.495 20.9778 297.25 26.1996C313.95 40.9296 328.96 58.1496 349.99 64.5496C371.86 71.1796 395.76 64.5495 418.17 68.9995C451.02 75.5695 475.17 105.53 484.7 137.65C485.14 139.123 485.55 140.606 485.93 142.1Z" fill="url(#paint0_linear_1_76)" fill-opacity="0.2"/>
<defs>
<linearGradient id="paint0_linear_1_76" x1="0" y1="71.1495" x2="485.93" y2="71.1495" gradientUnits="userSpaceOnUse">
<stop stop-color="#C1A230"/>
<stop offset="1" stop-color="#F6CF4E"/>
</linearGradient>
</defs>
</svg>
